<?xml version="1.0" standalone="no"?>
<!DOCTYPE svg PUBLIC "-//W3C//DTD SVG 20010904//EN"
 "http://www.w3.org/TR/2001/REC-SVG-20010904/DTD/svg10.dtd">
<svg version="1.0" xmlns="http://www.w3.org/2000/svg"
 width="512.000000pt" height="512.000000pt" viewBox="0 0 512.000000 512.000000"
 preserveAspectRatio="xMidYMid meet">

<g transform="translate(0.000000,512.000000) scale(0.100000,-0.100000)"
fill="#000000" stroke="none">
<path d="M766 4459 c-152 -36 -296 -189 -326 -349 -14 -72 -14 -1908 0 -1981
34 -184 205 -341 388 -356 l71 -6 3 -271 c3 -260 4 -273 26 -314 45 -84 149
-122 233 -85 24 11 241 167 483 347 l439 326 767 0 c741 0 770 1 833 20 130
40 247 158 287 288 19 62 20 95 20 1042 0 947 -1 980 -20 1042 -40 130 -157
248 -287 288 -64 20 -89 20 -1472 19 -807 -1 -1423 -5 -1445 -10z m2834 -210
c64 -14 127 -61 157 -118 l23 -44 0 -967 0 -967 -23 -44 c-30 -57 -93 -104
-157 -118 -34 -7 -303 -11 -824 -11 l-773 0 -444 -329 -444 -329 -5 304 c-6
375 8 346 -174 355 -113 5 -128 8 -177 36 -37 21 -63 45 -84 78 l-30 48 -3
967 -2 967 28 54 c21 41 40 61 81 86 29 18 65 34 80 36 14 2 632 5 1373 6 941
1 1362 -2 1398 -10z"/>
<path d="M1275 3341 c-97 -44 -151 -155 -121 -253 20 -67 49 -103 108 -132 68
-34 128 -34 195 -1 124 62 155 220 65 325 -64 76 -162 100 -247 61z"/>
<path d="M2109 3332 c-144 -75 -156 -272 -22 -366 77 -53 188 -47 259 17 99
86 99 238 1 324 -67 59 -155 68 -238 25z"/>
<path d="M2995 3349 c-45 -13 -105 -67 -126 -113 -37 -81 -16 -188 47 -248
139 -130 364 -28 364 163 0 39 -38 126 -66 151 -55 48 -148 68 -219 47z"/>
<path d="M4194 4021 c-44 -27 -60 -77 -40 -124 17 -43 52 -62 126 -70 66 -8
121 -43 165 -106 l30 -43 3 -956 c2 -693 0 -968 -9 -998 -15 -58 -63 -112
-123 -140 -44 -20 -67 -24 -158 -24 -105 0 -109 -1 -140 -29 l-33 -29 -5 -302
-5 -302 -433 321 c-238 176 -441 325 -452 331 -12 6 -205 10 -539 10 l-519 0
-31 -26 c-38 -32 -49 -80 -27 -123 32 -62 26 -61 557 -61 l481 0 266 -197
c592 -440 636 -471 676 -482 54 -13 113 2 160 41 70 57 71 62 74 366 l3 272
29 0 c195 0 387 161 429 358 15 70 16 1905 1 1983 -30 159 -157 291 -325 335
-70 19 -125 17 -161 -5z"/>
</g>
</svg>
